<svg width="18" height="15" viewBox="0 0 18 15" fill="none" xmlns="http://www.w3.org/2000/svg">
<path fill-rule="evenodd" clip-rule="evenodd" d="M7.7075 1.2875C7.8975 1.4875 7.9975 1.7375 7.9975 1.9975C7.9975 2.2575 7.8975 2.5075 7.7075 2.7075L3.4075 6.9975L16.9975 6.9975C17.5475 6.9975 17.9975 7.4475 17.9975 7.9975C17.9975 8.5475 17.5475 8.9975 16.9975 8.9975L3.4075 8.9975L7.7075 13.2875C8.0975 13.6775 8.0975 14.3175 7.7075 14.7075C7.3175 15.0975 6.6775 15.0975 6.2875 14.7075L0.2875 8.7075C0.1975 8.6175 0.1275 8.5075 0.0775003 8.3875C0.0575003 8.3375 0.0375003 8.2975 0.0375003 8.2475C-0.0124997 8.0875 -0.0124997 7.9075 0.0375003 7.7475C0.0375003 7.6975 0.0575003 7.6575 0.0775003 7.6075C0.1275 7.4875 0.1975 7.3775 0.2875 7.2875L6.2875 1.2875C6.6775 0.897501 7.3175 0.897501 7.7075 1.2875" fill="#313037"/>
</svg>
