<svg width="18" height="15" viewBox="0 0 18 15" fill="none" xmlns="http://www.w3.org/2000/svg">
<path fill-rule="evenodd" clip-rule="evenodd" d="M10.2925 13.7125C10.1025 13.5125 10.0025 13.2625 10.0025 13.0025C10.0025 12.7425 10.1025 12.4925 10.2925 12.2925L14.5925 8.0025L1.0025 8.0025C0.4525 8.0025 0.0025002 7.5525 0.00250023 7.0025C0.00250025 6.4525 0.4525 6.0025 1.0025 6.0025L14.5925 6.0025L10.2925 1.7125C9.9025 1.3225 9.9025 0.6825 10.2925 0.2925C10.6825 -0.0975003 11.3225 -0.0975003 11.7125 0.2925L17.7125 6.2925C17.8025 6.3825 17.8725 6.4925 17.9225 6.6125C17.9425 6.6625 17.9625 6.7025 17.9625 6.7525C18.0125 6.9125 18.0125 7.0925 17.9625 7.2525C17.9625 7.3025 17.9425 7.3425 17.9225 7.3925C17.8725 7.5125 17.8025 7.6225 17.7125 7.7125L11.7125 13.7125C11.3225 14.1025 10.6825 14.1025 10.2925 13.7125" fill="#313037"/>
</svg>
