<svg width="43" height="16" viewBox="0 0 43 16" fill="none" xmlns="http://www.w3.org/2000/svg">
<path fill-rule="evenodd" clip-rule="evenodd" d="M8.00116 1.99897C8.00116 2.25897 7.90116 2.50897 7.71116 2.70897L3.41116 6.99897L41.0012 6.99897C41.5512 6.99897 42.0012 7.44896 42.0012 7.99896C42.0012 8.54896 41.5512 8.99896 41.0012 8.99896L3.41116 8.99896L7.71116 13.289C8.10116 13.679 8.10116 14.319 7.71116 14.709C7.32116 15.099 6.68116 15.099 6.29116 14.709L0.291162 8.70896C0.201162 8.61896 0.131162 8.50896 0.0811621 8.38896C0.0611621 8.33896 0.0411621 8.29896 0.0411621 8.24896C-0.00883789 8.08896 -0.00883789 7.90896 0.0411621 7.74896C0.0411621 7.69896 0.0611621 7.65897 0.0811621 7.60896C0.131162 7.48897 0.201162 7.37896 0.291162 7.28896L6.29116 1.28897C6.68116 0.898965 7.32116 0.898965 7.71116 1.28897C7.90116 1.48897 8.00116 1.73897 8.00116 1.99897Z" fill="#313037"/>
</svg>
