<svg width="24" height="25" viewBox="0 0 24 25" fill="none" xmlns="http://www.w3.org/2000/svg">
<path fill-rule="evenodd" clip-rule="evenodd" d="M17.6569 16.424L13.4142 12.1814L17.6569 7.93874C18.0472 7.54842 18.0472 6.91485 17.6569 6.52453C17.2665 6.13421 16.633 6.13421 16.2426 6.52453L12 10.7672L7.75736 6.52453C7.36704 6.13421 6.73347 6.13421 6.34315 6.52453C5.95282 6.91485 5.95282 7.54842 6.34315 7.93874L10.5858 12.1814L6.34315 16.424C5.95212 16.8151 5.95282 17.4479 6.34315 17.8382C6.73347 18.2286 7.36633 18.2293 7.75736 17.8382L12 13.5956L16.2426 17.8382C16.6337 18.2293 17.2665 18.2286 17.6569 17.8382C18.0472 17.4479 18.0479 16.8151 17.6569 16.424Z" fill="#313037"/>
</svg>
