<svg width="24" height="24" viewBox="0 0 24 24" fill="none" xmlns="http://www.w3.org/2000/svg">
<path fill-rule="evenodd" clip-rule="evenodd" d="M4 10.5C4 6.92 6.92 4 10.5 4C14.08 4 17 6.92 17 10.5C17 12.29 16.27 13.92 15.09 15.09C13.92 16.27 12.29 17 10.5 17C6.92 17 4 14.08 4 10.5ZM21.71 20.29L17.18 15.76C18.32 14.31 19 12.48 19 10.5C19 5.81 15.19 2 10.5 2C5.81 2 2 5.81 2 10.5C2 15.19 5.81 19 10.5 19C12.48 19 14.31 18.32 15.76 17.18L20.29 21.71C20.49 21.9 20.74 22 21 22C21.26 22 21.51 21.9 21.71 21.71C22.1 21.32 22.1 20.68 21.71 20.29Z" fill="#313037"/>
</svg>
