<svg width="24" height="24" viewBox="0 0 24 24" fill="none" xmlns="http://www.w3.org/2000/svg">
<path d="M5.1 3L3 19.3929C3 19.8191 3.15979 20.2279 3.44422 20.5293C3.72865 20.8307 4.11442 21 4.51667 21H19.4833C19.8856 21 20.2713 20.8307 20.5558 20.5293C20.8402 20.2279 21 19.8191 21 19.3929L18.9 3H5.1Z" stroke="#313037" stroke-width="2" stroke-linecap="round" stroke-linejoin="round"/>
<path d="M15 9C15 9.53043 14.6839 10.0391 14.1213 10.4142C13.5587 10.7893 12.7956 11 12 11C11.2044 11 10.4413 10.7893 9.87868 10.4142C9.31607 10.0391 9 9.53043 9 9" stroke="#313037" stroke-width="2" stroke-linecap="round" stroke-linejoin="round"/>
</svg>
